<svg width="537" height="75" viewBox="0 0 537 174" fill="none" xmlns="http://www.w3.org/2000/svg">
<path d="M35.4725 67.875C42.9308 67.875 48.5142 69.75 52.2225 73.5C55.9308 77.25 57.785 83.2292 57.785 91.4375V137H52.91L51.785 125.125H51.41C49.9517 127.667 48.1808 129.938 46.0975 131.938C44.0142 133.896 41.4517 135.438 38.41 136.562C35.41 137.688 31.7433 138.25 27.41 138.25C23.035 138.25 19.285 137.521 16.16 136.062C13.0767 134.604 10.6808 132.479 8.9725 129.688C7.30584 126.896 6.4725 123.5 6.4725 119.5C6.4725 112.75 9.26417 107.625 14.8475 104.125C20.4308 100.583 28.4517 98.5833 38.91 98.125L51.535 97.5V92.5625C51.535 85.6042 50.16 80.6458 47.41 77.6875C44.66 74.7292 40.5975 73.25 35.2225 73.25C31.7225 73.25 28.3475 73.7083 25.0975 74.625C21.8892 75.5 18.6183 76.7708 15.285 78.4375L13.285 73.1875C16.535 71.6458 20.0142 70.375 23.7225 69.375C27.4725 68.375 31.3892 67.875 35.4725 67.875ZM51.4725 102.438L39.5975 102.938C30.9725 103.354 24.41 104.896 19.91 107.562C15.41 110.229 13.16 114.229 13.16 119.562C13.16 123.854 14.4933 127.146 17.16 129.438C19.8683 131.729 23.6183 132.875 28.41 132.875C35.8683 132.875 41.5558 130.75 45.4725 126.5C49.4308 122.25 51.4308 116.458 51.4725 109.125V102.438ZM140.018 119.188C140.018 123.229 138.997 126.688 136.955 129.562C134.955 132.396 132.018 134.562 128.143 136.062C124.268 137.521 119.497 138.25 113.83 138.25C109.122 138.25 104.913 137.833 101.205 137C97.4967 136.167 94.3925 135.146 91.8925 133.938V127.688C95.0175 129.229 98.4758 130.479 102.268 131.438C106.059 132.396 109.955 132.875 113.955 132.875C120.955 132.875 125.997 131.688 129.08 129.312C132.163 126.938 133.705 123.688 133.705 119.562C133.705 116.854 132.934 114.625 131.393 112.875C129.893 111.083 127.726 109.542 124.893 108.25C122.059 106.958 118.643 105.646 114.643 104.312C110.476 102.896 106.768 101.5 103.518 100.125C100.309 98.7083 97.7883 96.8542 95.955 94.5625C94.1217 92.2292 93.205 89.0625 93.205 85.0625C93.205 79.6042 95.3925 75.3542 99.7675 72.3125C104.143 69.2708 110.018 67.75 117.393 67.75C121.476 67.75 125.268 68.1458 128.768 68.9375C132.309 69.6875 135.518 70.6667 138.393 71.875L136.143 77.25C133.559 76.0417 130.58 75.0625 127.205 74.3125C123.83 73.5625 120.455 73.1875 117.08 73.1875C111.538 73.1875 107.205 74.1667 104.08 76.125C100.955 78.0833 99.3925 80.9583 99.3925 84.75C99.3925 87.6667 100.143 89.9583 101.643 91.625C103.143 93.25 105.288 94.625 108.08 95.75C110.872 96.8333 114.184 98.0417 118.018 99.375C121.976 100.75 125.622 102.188 128.955 103.688C132.33 105.188 135.018 107.125 137.018 109.5C139.018 111.875 140.018 115.104 140.018 119.188ZM205 67.75C212.625 67.75 218.479 69.75 222.562 73.75C226.646 77.75 228.688 84.0208 228.688 92.5625V137H222.438V92.9375C222.438 86.1875 220.896 81.2292 217.812 78.0625C214.729 74.8958 210.25 73.3125 204.375 73.3125C196.917 73.3125 191.208 75.5 187.25 79.875C183.333 84.2083 181.375 90.7708 181.375 99.5625V137H175.062V69.0625H180.188L181.125 81.4375H181.5C182.708 78.8958 184.354 76.6042 186.438 74.5625C188.562 72.4792 191.167 70.8333 194.25 69.625C197.333 68.375 200.917 67.75 205 67.75ZM321.42 69.0625V137H316.295L315.358 124.75H314.983C313.816 127.25 312.17 129.521 310.045 131.562C307.92 133.604 305.316 135.229 302.233 136.438C299.149 137.646 295.566 138.25 291.483 138.25C286.274 138.25 281.899 137.354 278.358 135.562C274.858 133.729 272.212 130.979 270.42 127.312C268.628 123.646 267.733 119.062 267.733 113.562V69.0625H274.045V112.938C274.045 119.729 275.566 124.729 278.608 127.938C281.691 131.146 286.191 132.75 292.108 132.75C297.108 132.75 301.295 131.792 304.67 129.875C308.087 127.958 310.67 125.062 312.42 121.188C314.212 117.271 315.108 112.396 315.108 106.562V69.0625H321.42ZM404.652 119.188C404.652 123.229 403.632 126.688 401.59 129.562C399.59 132.396 396.652 134.562 392.777 136.062C388.902 137.521 384.132 138.25 378.465 138.25C373.757 138.25 369.548 137.833 365.84 137C362.132 136.167 359.027 135.146 356.527 133.938V127.688C359.652 129.229 363.111 130.479 366.902 131.438C370.694 132.396 374.59 132.875 378.59 132.875C385.59 132.875 390.632 131.688 393.715 129.312C396.798 126.938 398.34 123.688 398.34 119.562C398.34 116.854 397.569 114.625 396.027 112.875C394.527 111.083 392.361 109.542 389.527 108.25C386.694 106.958 383.277 105.646 379.277 104.312C375.111 102.896 371.402 101.5 368.152 100.125C364.944 98.7083 362.423 96.8542 360.59 94.5625C358.757 92.2292 357.84 89.0625 357.84 85.0625C357.84 79.6042 360.027 75.3542 364.402 72.3125C368.777 69.2708 374.652 67.75 382.027 67.75C386.111 67.75 389.902 68.1458 393.402 68.9375C396.944 69.6875 400.152 70.6667 403.027 71.875L400.777 77.25C398.194 76.0417 395.215 75.0625 391.84 74.3125C388.465 73.5625 385.09 73.1875 381.715 73.1875C376.173 73.1875 371.84 74.1667 368.715 76.125C365.59 78.0833 364.027 80.9583 364.027 84.75C364.027 87.6667 364.777 89.9583 366.277 91.625C367.777 93.25 369.923 94.625 372.715 95.75C375.507 96.8333 378.819 98.0417 382.652 99.375C386.611 100.75 390.257 102.188 393.59 103.688C396.965 105.188 399.652 107.125 401.652 109.5C403.652 111.875 404.652 115.104 404.652 119.188Z" fill="#D1D1D1"/>
<path d="M415.334 135.336C415.334 134.648 415.49 134.125 415.803 133.766C416.115 133.391 416.576 133.203 417.186 133.203C417.858 133.203 418.35 133.391 418.662 133.766C418.975 134.125 419.131 134.648 419.131 135.336C419.131 136.023 418.975 136.555 418.662 136.93C418.35 137.305 417.858 137.492 417.186 137.492C416.576 137.492 416.115 137.305 415.803 136.93C415.49 136.555 415.334 136.023 415.334 135.336ZM444.085 137.469C441.554 137.469 439.413 136.945 437.663 135.898C435.929 134.836 434.617 133.328 433.726 131.375C432.851 129.406 432.413 127.078 432.413 124.391C432.413 121.594 432.921 119.203 433.937 117.219C434.953 115.219 436.382 113.688 438.226 112.625C440.07 111.562 442.234 111.031 444.718 111.031C445.937 111.031 447.07 111.141 448.117 111.359C449.163 111.578 450.109 111.883 450.953 112.273L450.32 114.359C449.445 113.969 448.515 113.672 447.531 113.469C446.546 113.266 445.601 113.164 444.695 113.164C442.601 113.164 440.82 113.625 439.351 114.547C437.898 115.453 436.781 116.75 435.999 118.438C435.234 120.109 434.851 122.086 434.851 124.367C434.851 126.508 435.179 128.406 435.835 130.062C436.492 131.703 437.499 133 438.859 133.953C440.218 134.891 441.96 135.359 444.085 135.359C445.32 135.359 446.492 135.234 447.601 134.984C448.726 134.734 449.749 134.414 450.671 134.023V136.18C449.843 136.555 448.882 136.859 447.788 137.094C446.71 137.344 445.476 137.469 444.085 137.469ZM484.555 124.227C484.555 126.195 484.313 127.992 483.829 129.617C483.344 131.227 482.626 132.617 481.673 133.789C480.719 134.961 479.532 135.867 478.11 136.508C476.704 137.148 475.063 137.469 473.188 137.469C471.407 137.469 469.821 137.156 468.43 136.531C467.04 135.891 465.86 134.984 464.891 133.812C463.938 132.641 463.212 131.25 462.712 129.641C462.212 128.016 461.962 126.211 461.962 124.227C461.962 121.492 462.415 119.141 463.321 117.172C464.243 115.188 465.555 113.672 467.258 112.625C468.977 111.562 471.032 111.031 473.423 111.031C475.891 111.031 477.946 111.594 479.587 112.719C481.243 113.828 482.485 115.375 483.313 117.359C484.141 119.344 484.555 121.633 484.555 124.227ZM464.399 124.227C464.399 126.461 464.719 128.414 465.36 130.086C466.001 131.758 466.969 133.062 468.266 134C469.579 134.938 471.235 135.406 473.235 135.406C475.282 135.406 476.962 134.938 478.274 134C479.587 133.062 480.555 131.75 481.18 130.062C481.805 128.375 482.118 126.43 482.118 124.227C482.118 122.086 481.821 120.18 481.227 118.508C480.633 116.836 479.696 115.523 478.415 114.57C477.133 113.602 475.462 113.117 473.399 113.117C470.446 113.117 468.204 114.102 466.673 116.07C465.157 118.039 464.399 120.758 464.399 124.227ZM524.603 111.031C527.057 111.031 528.994 111.742 530.416 113.164C531.838 114.586 532.549 116.828 532.549 119.891V137H530.228V119.984C530.228 117.625 529.689 115.891 528.611 114.781C527.533 113.672 526.111 113.117 524.346 113.117C521.924 113.117 520.025 113.828 518.65 115.25C517.291 116.656 516.611 118.875 516.611 121.906V137H514.268V119.984C514.268 118.406 514.018 117.117 513.518 116.117C513.033 115.102 512.353 114.352 511.478 113.867C510.603 113.367 509.572 113.117 508.385 113.117C506.807 113.117 505.439 113.445 504.283 114.102C503.127 114.742 502.236 115.742 501.611 117.102C500.986 118.445 500.674 120.156 500.674 122.234V137H498.307V111.523H500.228L500.58 115.695H500.721C501.143 114.867 501.705 114.102 502.408 113.398C503.111 112.695 503.978 112.125 505.01 111.688C506.057 111.25 507.283 111.031 508.689 111.031C510.518 111.031 512.064 111.445 513.33 112.273C514.611 113.086 515.502 114.297 516.002 115.906H516.166C516.853 114.375 517.916 113.18 519.353 112.32C520.807 111.461 522.557 111.031 524.603 111.031Z" fill="#259DFF"/>
</svg>
